Coordinates
version=1
nRows=16
nColumns=63
inDegrees=yes

Units are S.I. units (second, meters, Newtons, ...)
If the header above contains a line with 'inDegrees', this indicates whether rotational values are in degrees (yes) or radians (no).

endheader
time	pelvis_tilt	pelvis_list	pelvis_rotation	pelvis_tx	pelvis_ty	pelvis_tz	hip_flexion_r	hip_adduction_r	hip_rotation_r	knee_angle_r	knee_angle_r_beta	ankle_angle_r	subtalar_angle_r	mtp_angle_r	hip_flexion_l	hip_adduction_l	hip_rotation_l	knee_angle_l	knee_angle_l_beta	ankle_angle_l	subtalar_angle_l	mtp_angle_l	L5_S1_Flex_Ext	L5_S1_Lat_Bending	L5_S1_axial_rotation	L4_L5_Flex_Ext	L4_L5_Lat_Bending	L4_L5_axial_rotation	L3_L4_Flex_Ext	L3_L4_Lat_Bending	L3_L4_axial_rotation	L2_L3_Flex_Ext	L2_L3_Lat_Bending	L2_L3_axial_rotation	L1_L2_Flex_Ext	L1_L2_Lat_Bending	L1_L2_axial_rotation	L1_T12_Flex_Ext	L1_T12_Lat_Bending	L1_T12_axial_rotation	Abs_r3	Abs_r2	Abs_r1	Abs_t1	Abs_t2	neck_flexion	neck_bending	neck_rotation	arm_flex_r	arm_add_r	arm_rot_r	elbow_flex_r	pro_sup_r	wrist_flex_r	wrist_dev_r	arm_flex_l	arm_add_l	arm_rot_l	elbow_flex_l	pro_sup_l	wrist_flex_l	wrist_dev_l
0.000000	14.042240	-3.631160	96.307901	0.305436	1.050176	0.407676	2.157837	8.291623	-19.358513	12.592798	0.219786	40.958181	18.421453	0.000000	3.982526	-9.756546	-7.463788	15.697450	0.273972	43.498090	15.388496	0.000000	0.267296	1.186924	-1.303934	0.496396	1.578609	-1.385430	0.439141	2.885887	-1.385430	0.305493	2.885887	-1.140942	0.248211	2.420375	-1.059447	0.152733	1.838545	-0.977951	1.909272	13.426721	-7.252091	0.000000	0.000000	26.798597	-1.899512	11.643686	10.162845	-4.274876	59.988253	37.618205	2.273886	-8.819178	12.377068	14.500357	5.051808	73.195224	29.055247	65.610217	-9.662338	-8.237071
0.016667	14.033088	-3.209668	97.608120	0.304347	1.050638	0.405680	1.051717	8.653867	-19.998084	11.274576	0.196778	40.360809	18.037330	0.000000	3.928350	-9.894472	-7.166082	16.267743	0.283926	43.406093	15.635052	0.000000	0.252206	1.172482	-1.534013	0.468372	1.559401	-1.629889	0.414349	2.850773	-1.629889	0.288246	2.850773	-1.342261	0.234198	2.390926	-1.246386	0.144110	1.816175	-1.150510	1.801482	13.263354	-8.531720	0.000000	0.000000	26.090357	-2.062367	11.255728	10.236179	-4.217928	60.070274	37.479258	3.044088	-7.762570	11.400332	14.116445	4.758357	72.287275	29.588986	62.086609	-8.915469	-7.846204
0.033333	13.977071	-2.889765	98.600815	0.303495	1.051007	0.404180	0.203987	8.878269	-20.490678	10.269842	0.179243	39.906398	17.747507	0.000000	3.894135	-9.936984	-6.887310	16.704953	0.291556	43.319959	15.790847	0.000000	0.240694	1.155944	-1.708863	0.446994	1.537406	-1.815667	0.395437	2.810563	-1.815667	0.275090	2.810563	-1.495255	0.223509	2.357202	-1.388451	0.137533	1.790558	-1.281647	1.719256	13.076274	-9.504181	0.000000	0.000000	25.547170	-2.175466	10.956973	10.275428	-4.163233	60.121363	37.372506	3.706175	-6.891914	10.623810	13.771482	4.516148	71.407055	30.022789	59.513326	-8.304507	-7.500536
0.050000	13.879147	-2.661747	99.314481	0.302858	1.051292	0.403128	-0.409756	8.978097	-20.851416	9.550372	0.166685	39.580619	17.542788	0.000000	3.876810	-9.893744	-6.625605	17.020339	0.297061	43.238495	15.862244	0.000000	0.232411	1.137557	-1.833614	0.431610	1.512951	-1.948214	0.381827	2.765857	-1.948214	0.265622	2.765857	-1.604412	0.215816	2.319707	-1.489811	0.132799	1.762076	-1.375210	1.660085	12.868275	-10.198009	0.000000	0.000000	25.152707	-2.244065	10.737968	10.284580	-4.110487	60.145211	37.295206	4.267052	-6.192378	10.028903	13.463906	4.320007	70.560189	30.366101	57.793198	-7.817523	-7.196658
0.066667	13.744273	-2.515916	99.777615	0.302416	1.051501	0.402475	-0.813914	8.966621	-21.095420	9.087941	0.158614	39.369140	17.413978	0.000000	3.873302	-9.774414	-6.379098	17.225165	0.300636	43.160512	15.855603	0.000000	0.227003	1.117568	-1.913397	0.421567	1.486365	-2.032984	0.372943	2.717254	-2.032984	0.259442	2.717254	-1.674222	0.210795	2.278944	-1.554635	0.129709	1.731112	-1.435048	1.621459	12.642147	-10.641739	0.000000	0.000000	24.890639	-2.273423	10.589262	10.267628	-4.059386	60.145511	37.244615	4.733625	-5.649134	9.597011	13.192155	4.164760	69.752301	30.628367	56.829053	-7.442593	-6.931159
0.083333	13.577408	-2.442571	100.018712	0.302146	1.051642	0.402175	-1.032892	8.857113	-21.237810	8.854322	0.154537	39.257633	17.351882	0.000000	3.880541	-9.588656	-6.145922	17.330692	0.302478	43.084819	15.777287	0.000000	0.224120	1.096222	-1.953343	0.416214	1.457976	-2.075427	0.368207	2.665355	-2.075427	0.256147	2.665355	-1.709175	0.208118	2.235416	-1.587091	0.128062	1.698048	-1.465007	1.600868	12.400685	-10.863907	0.000000	0.000000	24.744634	-2.268800	10.501403	10.228561	-4.009626	60.125955	37.217988	5.112797	-5.247349	9.309537	12.954666	4.045232	68.989018	30.819034	56.523719	-7.167787	-6.700628
0.100000	13.383509	-2.432009	100.066268	0.302027	1.051725	0.402180	-1.091093	8.662842	-21.293707	8.821291	0.153961	39.231767	17.347305	0.000000	3.895454	-9.346132	-5.924208	17.348182	0.302783	43.010224	15.633658	0.000000	0.223411	1.073768	-1.958583	0.414896	1.428112	-2.080994	0.367042	2.610760	-2.080994	0.255336	2.610760	-1.713760	0.207459	2.189628	-1.591348	0.127657	1.663267	-1.468937	1.595802	12.146679	-10.893049	0.000000	0.000000	24.698365	-2.235452	10.464936	10.171370	-3.960904	60.090233	37.212582	5.411475	-4.972195	9.147881	12.749879	3.956247	68.275964	30.947546	56.780025	-6.981179	-6.501654
0.116667	13.167534	-2.474532	99.948778	0.302038	1.051757	0.402442	-1.012921	8.397078	-21.278231	8.960623	0.156392	39.277212	17.391052	0.000000	3.914970	-9.056504	-5.712089	17.288896	0.301748	42.935538	15.431077	0.000000	0.224524	1.050452	-1.934246	0.416963	1.397101	-2.055137	0.368870	2.554069	-2.055137	0.256608	2.554069	-1.692466	0.208493	2.142082	-1.571575	0.128293	1.627150	-1.450685	1.603752	11.882923	-10.757699	0.000000	0.000000	24.735499	-2.178639	10.470411	10.100045	-3.912917	60.042039	37.225655	5.636562	-4.808841	9.093446	12.576230	3.892633	67.618764	31.023348	57.500799	-6.870843	-6.330827
0.133333	12.934442	-2.560438	99.694738	0.302156	1.051748	0.402913	-0.822778	8.073091	-21.206503	9.244091	0.161340	39.379638	17.473927	0.000000	3.936016	-8.729434	-5.507695	17.164097	0.299570	42.859569	15.175907	0.000000	0.227108	1.026521	-1.885465	0.421762	1.365273	-2.003307	0.373115	2.495883	-2.003307	0.259561	2.495883	-1.649782	0.210892	2.093281	-1.531941	0.129769	1.590081	-1.414099	1.622207	11.612210	-10.486393	0.000000	0.000000	24.839709	-2.103618	10.508374	10.018576	-3.865360	59.985064	37.254461	5.794963	-4.742457	9.127631	12.432159	3.849213	67.023044	31.055887	58.588870	-6.824850	-6.184736
0.150000	12.689191	-2.680027	99.332645	0.302362	1.051706	0.403546	-0.545070	7.704151	-21.093645	9.643471	0.168310	39.524716	17.586735	0.000000	3.955522	-8.374583	-5.309159	16.985046	0.296445	42.781127	14.874508	0.000000	0.230811	1.002222	-1.817370	0.428639	1.332955	-1.930956	0.379199	2.436801	-1.930956	0.263794	2.436801	-1.590199	0.214331	2.043730	-1.476613	0.131885	1.552441	-1.363028	1.648660	11.337330	-10.107667	0.000000	0.000000	24.994664	-2.015648	10.569373	9.930955	-3.817930	59.922999	37.296259	5.893584	-4.758211	9.231840	12.316102	3.820813	66.494428	31.054608	59.947066	-6.831274	-6.059971
0.166667	12.436738	-2.823597	98.890993	0.302632	1.051639	0.404292	-0.204198	7.303528	-20.954776	10.130537	0.176811	39.698115	17.720281	0.000000	3.970415	-8.001615	-5.114614	16.763005	0.292570	42.699022	14.533243	0.000000	0.235282	0.977801	-1.735091	0.436943	1.300475	-1.843534	0.386545	2.377425	-1.843534	0.268904	2.377425	-1.518205	0.218483	1.993931	-1.409761	0.134440	1.514613	-1.301318	1.680598	11.061078	-9.650056	0.000000	0.000000	25.184034	-1.919988	10.643956	9.841171	-3.770325	59.859538	37.348304	5.939328	-4.841275	9.387472	12.226499	3.802259	66.038542	31.028955	61.478216	-6.878188	-5.953121
0.183333	12.190971	-2.964584	98.430114	0.302946	1.051598	0.405022	0.137390	6.914149	-20.805399	10.621390	0.185378	39.853572	17.846426	0.000000	3.957693	-7.634800	-4.895528	16.501942	0.288013	42.564571	14.133456	0.000000	0.239388	0.953543	-1.650228	0.444567	1.268213	-1.753367	0.393290	2.318446	-1.753367	0.273596	2.318446	-1.443950	0.222295	1.944466	-1.340810	0.136786	1.477039	-1.237671	1.709922	10.786675	-9.178074	0.000000	0.000000	25.355383	-1.829680	10.673441	9.765920	-3.730541	59.828733	37.396343	6.038771	-4.946173	9.592168	12.129819	3.778151	65.688540	31.012006	62.202962	-6.766845	-5.805564
0.200000	11.939988	-3.102087	97.974698	0.303239	1.051546	0.405735	0.469975	6.508692	-20.700836	11.140791	0.194443	39.993294	17.962660	0.000000	3.927855	-7.262425	-4.661470	16.219270	0.283080	42.459206	13.732161	0.000000	0.243311	0.928815	-1.566339	0.451852	1.235323	-1.664235	0.399735	2.258320	-1.664235	0.278080	2.258320	-1.370546	0.225938	1.894039	-1.272650	0.139028	1.438734	-1.174754	1.737944	10.506935	-8.711506	0.000000	0.000000	25.518993	-1.740440	10.719601	9.700569	-3.682096	59.795014	37.463161	6.022855	-5.083356	9.742555	12.088404	3.741621	65.454614	30.999422	63.191702	-6.779049	-5.722945
0.216667	11.685417	-3.228486	97.530055	0.303516	1.051495	0.406390	0.780200	6.094733	-20.652637	11.676968	0.203802	40.112289	18.078836	0.000000	3.870237	-6.885568	-4.399705	15.916452	0.277794	42.358608	13.277249	0.000000	0.246526	0.903304	-1.482648	0.457824	1.201395	-1.575314	0.405018	2.196294	-1.575314	0.281755	2.196294	-1.297317	0.228924	1.842018	-1.204652	0.140865	1.399219	-1.111986	1.760914	10.218361	-8.246046	0.000000	0.000000	25.662489	-1.672738	10.718800	9.631966	-3.620483	59.711431	37.547886	5.955554	-5.279445	9.855658	12.101346	3.689837	65.371875	30.995451	64.317847	-6.919990	-5.687897
0.233333	11.450141	-3.341549	97.125028	0.303754	1.051444	0.406980	1.059317	5.705956	-20.651268	12.196470	0.212869	40.197380	18.176628	0.000000	3.805188	-6.536455	-4.140841	15.630194	0.272798	42.263998	12.808814	0.000000	0.249186	0.879783	-1.406556	0.462763	1.170112	-1.494466	0.409387	2.139105	-1.494466	0.284795	2.139105	-1.230736	0.231394	1.794054	-1.142827	0.142385	1.362784	-1.054917	1.779910	9.952286	-7.822842	0.000000	0.000000	25.773508	-1.621369	10.718702	9.587243	-3.559946	59.670444	37.627180	5.823207	-5.455304	9.926759	12.135268	3.630692	65.319882	31.003884	65.593292	-7.097264	-5.657385
0.250000	11.242986	-3.440866	96.789614	0.303932	1.051392	0.407483	1.299322	5.358068	-20.708505	12.670683	0.221145	40.252481	18.264107	0.000000	3.744409	-6.224325	-3.871065	15.379870	0.268429	42.156621	12.308991	0.000000	0.251851	0.858941	-1.344357	0.467712	1.142391	-1.428379	0.413765	2.088429	-1.428379	0.287840	2.088429	-1.176312	0.233868	1.751552	-1.092290	0.143907	1.330499	-1.008268	1.798943	9.716510	-7.476910	0.000000	0.000000	25.844411	-1.583500	10.724511	9.566642	-3.502121	59.684939	37.696001	5.631754	-5.633245	9.959566	12.171472	3.566016	65.286406	31.025736	66.843150	-7.241654	-5.611111
